<mxfile host="app.diagrams.net" modified="2023-05-03T10:14:18.911Z" agent="Mozilla/5.0 (Windows NT 10.0; Win64; x64) AppleWebKit/537.36 (KHTML, like Gecko) Chrome/113.0.0.0 Safari/537.36" etag="4yl9URWZR9hxAaLo6zjg" version="21.2.3" type="device">
  <diagram name="페이지-1" id="Ym8J8PyvyoB7j-7csq2N">
    <mxGraphModel dx="1036" dy="1263" grid="1" gridSize="10" guides="1" tooltips="1" connect="1" arrows="1" fold="1" page="1" pageScale="1" pageWidth="1169" pageHeight="1654" math="0" shadow="0">
      <root>
        <mxCell id="0" />
        <mxCell id="1" parent="0" />
        <mxCell id="3Uxt6Q_RdLJ32RTA_EAH-56" value="환자" style="whiteSpace=wrap;html=1;aspect=fixed;sketch=1;hachureGap=4;jiggle=2;curveFitting=1;fontFamily=Architects Daughter;fontSource=https%3A%2F%2Ffonts.googleapis.com%2Fcss%3Ffamily%3DArchitects%2BDaughter;fontSize=20;" vertex="1" parent="1">
          <mxGeometry x="620" y="810" width="110" height="110" as="geometry" />
        </mxCell>
        <mxCell id="3Uxt6Q_RdLJ32RTA_EAH-129" style="edgeStyle=none;shape=connector;rounded=0;sketch=1;hachureGap=4;jiggle=2;curveFitting=1;orthogonalLoop=1;jettySize=auto;html=1;exitX=0;exitY=1;exitDx=0;exitDy=0;entryX=1;entryY=0;entryDx=0;entryDy=0;labelBackgroundColor=default;strokeColor=default;fontFamily=Architects Daughter;fontSource=https%3A%2F%2Ffonts.googleapis.com%2Fcss%3Ffamily%3DArchitects%2BDaughter;fontSize=16;fontColor=default;endArrow=ERone;endFill=0;startSize=11;endSize=11;startArrow=ERoneToMany;startFill=0;" edge="1" parent="1" source="3Uxt6Q_RdLJ32RTA_EAH-64" target="3Uxt6Q_RdLJ32RTA_EAH-56">
          <mxGeometry relative="1" as="geometry" />
        </mxCell>
        <mxCell id="3Uxt6Q_RdLJ32RTA_EAH-130" style="edgeStyle=none;shape=connector;rounded=0;sketch=1;hachureGap=4;jiggle=2;curveFitting=1;orthogonalLoop=1;jettySize=auto;html=1;exitX=1;exitY=1;exitDx=0;exitDy=0;entryX=0;entryY=0;entryDx=0;entryDy=0;labelBackgroundColor=default;strokeColor=default;fontFamily=Architects Daughter;fontSource=https%3A%2F%2Ffonts.googleapis.com%2Fcss%3Ffamily%3DArchitects%2BDaughter;fontSize=16;fontColor=default;endArrow=ERone;endFill=0;startSize=11;endSize=11;startArrow=ERoneToMany;startFill=0;" edge="1" parent="1" source="3Uxt6Q_RdLJ32RTA_EAH-64" target="3Uxt6Q_RdLJ32RTA_EAH-108">
          <mxGeometry relative="1" as="geometry" />
        </mxCell>
        <mxCell id="3Uxt6Q_RdLJ32RTA_EAH-64" value="처방전" style="whiteSpace=wrap;html=1;aspect=fixed;sketch=1;hachureGap=4;jiggle=2;curveFitting=1;fontFamily=Architects Daughter;fontSource=https%3A%2F%2Ffonts.googleapis.com%2Fcss%3Ffamily%3DArchitects%2BDaughter;fontSize=20;" vertex="1" parent="1">
          <mxGeometry x="890" y="470" width="110" height="110" as="geometry" />
        </mxCell>
        <mxCell id="3Uxt6Q_RdLJ32RTA_EAH-122" style="edgeStyle=none;shape=connector;rounded=0;sketch=1;hachureGap=4;jiggle=2;curveFitting=1;orthogonalLoop=1;jettySize=auto;html=1;exitX=0;exitY=1;exitDx=0;exitDy=0;entryX=1;entryY=0;entryDx=0;entryDy=0;labelBackgroundColor=default;strokeColor=default;fontFamily=Architects Daughter;fontSource=https%3A%2F%2Ffonts.googleapis.com%2Fcss%3Ffamily%3DArchitects%2BDaughter;fontSize=16;fontColor=default;endArrow=none;endFill=0;startSize=11;endSize=11;" edge="1" parent="1" source="3Uxt6Q_RdLJ32RTA_EAH-80" target="3Uxt6Q_RdLJ32RTA_EAH-64">
          <mxGeometry relative="1" as="geometry" />
        </mxCell>
        <mxCell id="3Uxt6Q_RdLJ32RTA_EAH-80" value="투약&lt;br&gt;일수" style="ellipse;whiteSpace=wrap;html=1;aspect=fixed;sketch=1;hachureGap=4;jiggle=2;curveFitting=1;fontFamily=Architects Daughter;fontSource=https%3A%2F%2Ffonts.googleapis.com%2Fcss%3Ffamily%3DArchitects%2BDaughter;fontSize=20;" vertex="1" parent="1">
          <mxGeometry x="1110" y="310" width="80" height="80" as="geometry" />
        </mxCell>
        <mxCell id="3Uxt6Q_RdLJ32RTA_EAH-121" style="edgeStyle=none;shape=connector;rounded=0;sketch=1;hachureGap=4;jiggle=2;curveFitting=1;orthogonalLoop=1;jettySize=auto;html=1;exitX=0.5;exitY=1;exitDx=0;exitDy=0;entryX=0.647;entryY=0.008;entryDx=0;entryDy=0;entryPerimeter=0;labelBackgroundColor=default;strokeColor=default;fontFamily=Architects Daughter;fontSource=https%3A%2F%2Ffonts.googleapis.com%2Fcss%3Ffamily%3DArchitects%2BDaughter;fontSize=16;fontColor=default;endArrow=none;endFill=0;startSize=11;endSize=11;" edge="1" parent="1" source="3Uxt6Q_RdLJ32RTA_EAH-81" target="3Uxt6Q_RdLJ32RTA_EAH-64">
          <mxGeometry relative="1" as="geometry" />
        </mxCell>
        <mxCell id="3Uxt6Q_RdLJ32RTA_EAH-81" value="처방&lt;br&gt;날짜" style="ellipse;whiteSpace=wrap;html=1;aspect=fixed;sketch=1;hachureGap=4;jiggle=2;curveFitting=1;fontFamily=Architects Daughter;fontSource=https%3A%2F%2Ffonts.googleapis.com%2Fcss%3Ffamily%3DArchitects%2BDaughter;fontSize=20;" vertex="1" parent="1">
          <mxGeometry x="970" y="310" width="80" height="80" as="geometry" />
        </mxCell>
        <mxCell id="3Uxt6Q_RdLJ32RTA_EAH-120" style="edgeStyle=none;shape=connector;rounded=0;sketch=1;hachureGap=4;jiggle=2;curveFitting=1;orthogonalLoop=1;jettySize=auto;html=1;exitX=0.5;exitY=1;exitDx=0;exitDy=0;entryX=0.387;entryY=0.008;entryDx=0;entryDy=0;entryPerimeter=0;labelBackgroundColor=default;strokeColor=default;fontFamily=Architects Daughter;fontSource=https%3A%2F%2Ffonts.googleapis.com%2Fcss%3Ffamily%3DArchitects%2BDaughter;fontSize=16;fontColor=default;endArrow=none;endFill=0;startSize=11;endSize=11;" edge="1" parent="1" source="3Uxt6Q_RdLJ32RTA_EAH-82" target="3Uxt6Q_RdLJ32RTA_EAH-64">
          <mxGeometry relative="1" as="geometry" />
        </mxCell>
        <mxCell id="3Uxt6Q_RdLJ32RTA_EAH-82" value="담당&lt;br&gt;의사" style="ellipse;whiteSpace=wrap;html=1;aspect=fixed;sketch=1;hachureGap=4;jiggle=2;curveFitting=1;fontFamily=Architects Daughter;fontSource=https%3A%2F%2Ffonts.googleapis.com%2Fcss%3Ffamily%3DArchitects%2BDaughter;fontSize=20;" vertex="1" parent="1">
          <mxGeometry x="830" y="310" width="80" height="80" as="geometry" />
        </mxCell>
        <mxCell id="3Uxt6Q_RdLJ32RTA_EAH-119" style="edgeStyle=none;shape=connector;rounded=0;sketch=1;hachureGap=4;jiggle=2;curveFitting=1;orthogonalLoop=1;jettySize=auto;html=1;exitX=1;exitY=1;exitDx=0;exitDy=0;entryX=0;entryY=0;entryDx=0;entryDy=0;labelBackgroundColor=default;strokeColor=default;fontFamily=Architects Daughter;fontSource=https%3A%2F%2Ffonts.googleapis.com%2Fcss%3Ffamily%3DArchitects%2BDaughter;fontSize=16;fontColor=default;endArrow=none;endFill=0;startSize=11;endSize=11;" edge="1" parent="1" source="3Uxt6Q_RdLJ32RTA_EAH-83" target="3Uxt6Q_RdLJ32RTA_EAH-64">
          <mxGeometry relative="1" as="geometry" />
        </mxCell>
        <mxCell id="3Uxt6Q_RdLJ32RTA_EAH-83" value="주민&lt;br&gt;번호" style="ellipse;whiteSpace=wrap;html=1;aspect=fixed;sketch=1;hachureGap=4;jiggle=2;curveFitting=1;fontFamily=Architects Daughter;fontSource=https%3A%2F%2Ffonts.googleapis.com%2Fcss%3Ffamily%3DArchitects%2BDaughter;fontSize=20;" vertex="1" parent="1">
          <mxGeometry x="690" y="310" width="80" height="80" as="geometry" />
        </mxCell>
        <mxCell id="3Uxt6Q_RdLJ32RTA_EAH-118" style="edgeStyle=none;shape=connector;rounded=0;sketch=1;hachureGap=4;jiggle=2;curveFitting=1;orthogonalLoop=1;jettySize=auto;html=1;exitX=1;exitY=0.5;exitDx=0;exitDy=0;entryX=0;entryY=0.5;entryDx=0;entryDy=0;labelBackgroundColor=default;strokeColor=default;fontFamily=Architects Daughter;fontSource=https%3A%2F%2Ffonts.googleapis.com%2Fcss%3Ffamily%3DArchitects%2BDaughter;fontSize=16;fontColor=default;endArrow=none;endFill=0;startSize=11;endSize=11;" edge="1" parent="1" source="3Uxt6Q_RdLJ32RTA_EAH-84" target="3Uxt6Q_RdLJ32RTA_EAH-64">
          <mxGeometry relative="1" as="geometry" />
        </mxCell>
        <mxCell id="3Uxt6Q_RdLJ32RTA_EAH-84" value="처방&lt;br&gt;번호" style="ellipse;whiteSpace=wrap;html=1;aspect=fixed;sketch=1;hachureGap=4;jiggle=2;curveFitting=1;fontFamily=Architects Daughter;fontSource=https%3A%2F%2Ffonts.googleapis.com%2Fcss%3Ffamily%3DArchitects%2BDaughter;fontSize=20;fontStyle=4" vertex="1" parent="1">
          <mxGeometry x="690" y="440" width="80" height="80" as="geometry" />
        </mxCell>
        <mxCell id="3Uxt6Q_RdLJ32RTA_EAH-123" style="edgeStyle=none;shape=connector;rounded=0;sketch=1;hachureGap=4;jiggle=2;curveFitting=1;orthogonalLoop=1;jettySize=auto;html=1;exitX=0;exitY=0.5;exitDx=0;exitDy=0;entryX=1;entryY=0.5;entryDx=0;entryDy=0;labelBackgroundColor=default;strokeColor=default;fontFamily=Architects Daughter;fontSource=https%3A%2F%2Ffonts.googleapis.com%2Fcss%3Ffamily%3DArchitects%2BDaughter;fontSize=16;fontColor=default;endArrow=none;endFill=0;startSize=11;endSize=11;" edge="1" parent="1" source="3Uxt6Q_RdLJ32RTA_EAH-91" target="3Uxt6Q_RdLJ32RTA_EAH-64">
          <mxGeometry relative="1" as="geometry" />
        </mxCell>
        <mxCell id="3Uxt6Q_RdLJ32RTA_EAH-91" value="제품&lt;br&gt;번호" style="ellipse;whiteSpace=wrap;html=1;aspect=fixed;sketch=1;hachureGap=4;jiggle=2;curveFitting=1;fontFamily=Architects Daughter;fontSource=https%3A%2F%2Ffonts.googleapis.com%2Fcss%3Ffamily%3DArchitects%2BDaughter;fontSize=20;" vertex="1" parent="1">
          <mxGeometry x="1120" y="440" width="80" height="80" as="geometry" />
        </mxCell>
        <mxCell id="3Uxt6Q_RdLJ32RTA_EAH-117" style="edgeStyle=none;shape=connector;rounded=0;sketch=1;hachureGap=4;jiggle=2;curveFitting=1;orthogonalLoop=1;jettySize=auto;html=1;exitX=0.5;exitY=0;exitDx=0;exitDy=0;entryX=0.605;entryY=1.015;entryDx=0;entryDy=0;entryPerimeter=0;labelBackgroundColor=default;strokeColor=default;fontFamily=Architects Daughter;fontSource=https%3A%2F%2Ffonts.googleapis.com%2Fcss%3Ffamily%3DArchitects%2BDaughter;fontSize=16;fontColor=default;endArrow=none;endFill=0;startSize=11;endSize=11;" edge="1" parent="1" source="3Uxt6Q_RdLJ32RTA_EAH-92" target="3Uxt6Q_RdLJ32RTA_EAH-56">
          <mxGeometry relative="1" as="geometry" />
        </mxCell>
        <mxCell id="3Uxt6Q_RdLJ32RTA_EAH-92" value="주민&lt;br&gt;번호" style="ellipse;whiteSpace=wrap;html=1;aspect=fixed;sketch=1;hachureGap=4;jiggle=2;curveFitting=1;fontFamily=Architects Daughter;fontSource=https%3A%2F%2Ffonts.googleapis.com%2Fcss%3Ffamily%3DArchitects%2BDaughter;fontSize=20;fontStyle=4" vertex="1" parent="1">
          <mxGeometry x="700" y="1020" width="80" height="80" as="geometry" />
        </mxCell>
        <mxCell id="3Uxt6Q_RdLJ32RTA_EAH-114" value="" style="edgeStyle=none;shape=connector;rounded=0;sketch=1;hachureGap=4;jiggle=2;curveFitting=1;orthogonalLoop=1;jettySize=auto;html=1;labelBackgroundColor=default;strokeColor=default;fontFamily=Architects Daughter;fontSource=https%3A%2F%2Ffonts.googleapis.com%2Fcss%3Ffamily%3DArchitects%2BDaughter;fontSize=16;fontColor=default;endArrow=none;endFill=0;startSize=11;endSize=11;" edge="1" parent="1" source="3Uxt6Q_RdLJ32RTA_EAH-93" target="3Uxt6Q_RdLJ32RTA_EAH-56">
          <mxGeometry relative="1" as="geometry" />
        </mxCell>
        <mxCell id="3Uxt6Q_RdLJ32RTA_EAH-93" value="환자&lt;br&gt;이름" style="ellipse;whiteSpace=wrap;html=1;aspect=fixed;sketch=1;hachureGap=4;jiggle=2;curveFitting=1;fontFamily=Architects Daughter;fontSource=https%3A%2F%2Ffonts.googleapis.com%2Fcss%3Ffamily%3DArchitects%2BDaughter;fontSize=20;" vertex="1" parent="1">
          <mxGeometry x="440" y="810" width="80" height="80" as="geometry" />
        </mxCell>
        <mxCell id="3Uxt6Q_RdLJ32RTA_EAH-115" style="edgeStyle=none;shape=connector;rounded=0;sketch=1;hachureGap=4;jiggle=2;curveFitting=1;orthogonalLoop=1;jettySize=auto;html=1;exitX=1;exitY=0;exitDx=0;exitDy=0;entryX=0;entryY=0.75;entryDx=0;entryDy=0;labelBackgroundColor=default;strokeColor=default;fontFamily=Architects Daughter;fontSource=https%3A%2F%2Ffonts.googleapis.com%2Fcss%3Ffamily%3DArchitects%2BDaughter;fontSize=16;fontColor=default;endArrow=none;endFill=0;startSize=11;endSize=11;" edge="1" parent="1" source="3Uxt6Q_RdLJ32RTA_EAH-94" target="3Uxt6Q_RdLJ32RTA_EAH-56">
          <mxGeometry relative="1" as="geometry" />
        </mxCell>
        <mxCell id="3Uxt6Q_RdLJ32RTA_EAH-94" value="주소" style="ellipse;whiteSpace=wrap;html=1;aspect=fixed;sketch=1;hachureGap=4;jiggle=2;curveFitting=1;fontFamily=Architects Daughter;fontSource=https%3A%2F%2Ffonts.googleapis.com%2Fcss%3Ffamily%3DArchitects%2BDaughter;fontSize=20;" vertex="1" parent="1">
          <mxGeometry x="440" y="940" width="80" height="80" as="geometry" />
        </mxCell>
        <mxCell id="3Uxt6Q_RdLJ32RTA_EAH-116" style="edgeStyle=none;shape=connector;rounded=0;sketch=1;hachureGap=4;jiggle=2;curveFitting=1;orthogonalLoop=1;jettySize=auto;html=1;exitX=0.5;exitY=0;exitDx=0;exitDy=0;entryX=0.25;entryY=1;entryDx=0;entryDy=0;labelBackgroundColor=default;strokeColor=default;fontFamily=Architects Daughter;fontSource=https%3A%2F%2Ffonts.googleapis.com%2Fcss%3Ffamily%3DArchitects%2BDaughter;fontSize=16;fontColor=default;endArrow=none;endFill=0;startSize=11;endSize=11;" edge="1" parent="1" source="3Uxt6Q_RdLJ32RTA_EAH-103" target="3Uxt6Q_RdLJ32RTA_EAH-56">
          <mxGeometry relative="1" as="geometry" />
        </mxCell>
        <mxCell id="3Uxt6Q_RdLJ32RTA_EAH-103" value="전화&lt;br&gt;번호" style="ellipse;whiteSpace=wrap;html=1;aspect=fixed;sketch=1;hachureGap=4;jiggle=2;curveFitting=1;fontFamily=Architects Daughter;fontSource=https%3A%2F%2Ffonts.googleapis.com%2Fcss%3Ffamily%3DArchitects%2BDaughter;fontSize=20;" vertex="1" parent="1">
          <mxGeometry x="570" y="1020" width="80" height="80" as="geometry" />
        </mxCell>
        <mxCell id="3Uxt6Q_RdLJ32RTA_EAH-108" value="의약품" style="whiteSpace=wrap;html=1;aspect=fixed;sketch=1;hachureGap=4;jiggle=2;curveFitting=1;fontFamily=Architects Daughter;fontSource=https%3A%2F%2Ffonts.googleapis.com%2Fcss%3Ffamily%3DArchitects%2BDaughter;fontSize=20;" vertex="1" parent="1">
          <mxGeometry x="1150" y="810" width="110" height="110" as="geometry" />
        </mxCell>
        <mxCell id="3Uxt6Q_RdLJ32RTA_EAH-124" style="edgeStyle=none;shape=connector;rounded=0;sketch=1;hachureGap=4;jiggle=2;curveFitting=1;orthogonalLoop=1;jettySize=auto;html=1;exitX=0;exitY=0.5;exitDx=0;exitDy=0;entryX=1.01;entryY=0.365;entryDx=0;entryDy=0;labelBackgroundColor=default;strokeColor=default;fontFamily=Architects Daughter;fontSource=https%3A%2F%2Ffonts.googleapis.com%2Fcss%3Ffamily%3DArchitects%2BDaughter;fontSize=16;fontColor=default;endArrow=none;endFill=0;startSize=11;endSize=11;entryPerimeter=0;" edge="1" parent="1" source="3Uxt6Q_RdLJ32RTA_EAH-109" target="3Uxt6Q_RdLJ32RTA_EAH-108">
          <mxGeometry relative="1" as="geometry" />
        </mxCell>
        <mxCell id="3Uxt6Q_RdLJ32RTA_EAH-109" value="제품&lt;br&gt;번호" style="ellipse;whiteSpace=wrap;html=1;aspect=fixed;sketch=1;hachureGap=4;jiggle=2;curveFitting=1;fontFamily=Architects Daughter;fontSource=https%3A%2F%2Ffonts.googleapis.com%2Fcss%3Ffamily%3DArchitects%2BDaughter;fontSize=20;fontStyle=4" vertex="1" parent="1">
          <mxGeometry x="1350" y="740" width="80" height="80" as="geometry" />
        </mxCell>
        <mxCell id="3Uxt6Q_RdLJ32RTA_EAH-125" style="edgeStyle=none;shape=connector;rounded=0;sketch=1;hachureGap=4;jiggle=2;curveFitting=1;orthogonalLoop=1;jettySize=auto;html=1;exitX=0;exitY=0.5;exitDx=0;exitDy=0;entryX=1.01;entryY=0.64;entryDx=0;entryDy=0;labelBackgroundColor=default;strokeColor=default;fontFamily=Architects Daughter;fontSource=https%3A%2F%2Ffonts.googleapis.com%2Fcss%3Ffamily%3DArchitects%2BDaughter;fontSize=16;fontColor=default;endArrow=none;endFill=0;startSize=11;endSize=11;entryPerimeter=0;" edge="1" parent="1" source="3Uxt6Q_RdLJ32RTA_EAH-110" target="3Uxt6Q_RdLJ32RTA_EAH-108">
          <mxGeometry relative="1" as="geometry" />
        </mxCell>
        <mxCell id="3Uxt6Q_RdLJ32RTA_EAH-110" value="제품&lt;br&gt;가격" style="ellipse;whiteSpace=wrap;html=1;aspect=fixed;sketch=1;hachureGap=4;jiggle=2;curveFitting=1;fontFamily=Architects Daughter;fontSource=https%3A%2F%2Ffonts.googleapis.com%2Fcss%3Ffamily%3DArchitects%2BDaughter;fontSize=20;" vertex="1" parent="1">
          <mxGeometry x="1350" y="880" width="80" height="80" as="geometry" />
        </mxCell>
        <mxCell id="3Uxt6Q_RdLJ32RTA_EAH-127" style="edgeStyle=none;shape=connector;rounded=0;sketch=1;hachureGap=4;jiggle=2;curveFitting=1;orthogonalLoop=1;jettySize=auto;html=1;exitX=0.5;exitY=0;exitDx=0;exitDy=0;entryX=0.635;entryY=0.986;entryDx=0;entryDy=0;entryPerimeter=0;labelBackgroundColor=default;strokeColor=default;fontFamily=Architects Daughter;fontSource=https%3A%2F%2Ffonts.googleapis.com%2Fcss%3Ffamily%3DArchitects%2BDaughter;fontSize=16;fontColor=default;endArrow=none;endFill=0;startSize=11;endSize=11;" edge="1" parent="1" source="3Uxt6Q_RdLJ32RTA_EAH-111" target="3Uxt6Q_RdLJ32RTA_EAH-108">
          <mxGeometry relative="1" as="geometry" />
        </mxCell>
        <mxCell id="3Uxt6Q_RdLJ32RTA_EAH-111" value="제품&lt;br&gt;이름" style="ellipse;whiteSpace=wrap;html=1;aspect=fixed;sketch=1;hachureGap=4;jiggle=2;curveFitting=1;fontFamily=Architects Daughter;fontSource=https%3A%2F%2Ffonts.googleapis.com%2Fcss%3Ffamily%3DArchitects%2BDaughter;fontSize=20;" vertex="1" parent="1">
          <mxGeometry x="1210" y="1020" width="80" height="80" as="geometry" />
        </mxCell>
        <mxCell id="3Uxt6Q_RdLJ32RTA_EAH-126" style="edgeStyle=none;shape=connector;rounded=0;sketch=1;hachureGap=4;jiggle=2;curveFitting=1;orthogonalLoop=1;jettySize=auto;html=1;exitX=0;exitY=0;exitDx=0;exitDy=0;entryX=1;entryY=1;entryDx=0;entryDy=0;labelBackgroundColor=default;strokeColor=default;fontFamily=Architects Daughter;fontSource=https%3A%2F%2Ffonts.googleapis.com%2Fcss%3Ffamily%3DArchitects%2BDaughter;fontSize=16;fontColor=default;endArrow=none;endFill=0;startSize=11;endSize=11;" edge="1" parent="1" source="3Uxt6Q_RdLJ32RTA_EAH-112" target="3Uxt6Q_RdLJ32RTA_EAH-108">
          <mxGeometry relative="1" as="geometry" />
        </mxCell>
        <mxCell id="3Uxt6Q_RdLJ32RTA_EAH-112" value="제조&lt;br&gt;회사" style="ellipse;whiteSpace=wrap;html=1;aspect=fixed;sketch=1;hachureGap=4;jiggle=2;curveFitting=1;fontFamily=Architects Daughter;fontSource=https%3A%2F%2Ffonts.googleapis.com%2Fcss%3Ffamily%3DArchitects%2BDaughter;fontSize=20;" vertex="1" parent="1">
          <mxGeometry x="1350" y="1020" width="80" height="80" as="geometry" />
        </mxCell>
        <mxCell id="3Uxt6Q_RdLJ32RTA_EAH-128" style="edgeStyle=none;shape=connector;rounded=0;sketch=1;hachureGap=4;jiggle=2;curveFitting=1;orthogonalLoop=1;jettySize=auto;html=1;exitX=0.5;exitY=0;exitDx=0;exitDy=0;entryX=0.25;entryY=1;entryDx=0;entryDy=0;labelBackgroundColor=default;strokeColor=default;fontFamily=Architects Daughter;fontSource=https%3A%2F%2Ffonts.googleapis.com%2Fcss%3Ffamily%3DArchitects%2BDaughter;fontSize=16;fontColor=default;endArrow=none;endFill=0;startSize=11;endSize=11;" edge="1" parent="1" source="3Uxt6Q_RdLJ32RTA_EAH-113" target="3Uxt6Q_RdLJ32RTA_EAH-108">
          <mxGeometry relative="1" as="geometry" />
        </mxCell>
        <mxCell id="3Uxt6Q_RdLJ32RTA_EAH-113" value="주요&lt;br&gt;성분" style="ellipse;whiteSpace=wrap;html=1;aspect=fixed;sketch=1;hachureGap=4;jiggle=2;curveFitting=1;fontFamily=Architects Daughter;fontSource=https%3A%2F%2Ffonts.googleapis.com%2Fcss%3Ffamily%3DArchitects%2BDaughter;fontSize=20;" vertex="1" parent="1">
          <mxGeometry x="1070" y="1020" width="80" height="80" as="geometry" />
        </mxCell>
      </root>
    </mxGraphModel>
  </diagram>
</mxfile>
